<svg xmlns="http://www.w3.org/2000/svg" viewBox="0 0 400.7857 661.5875"><defs></defs><title>logo</title><g id="Layer_2" data-name="Layer 2"><g id="Layer_1-2" data-name="Layer 1"><path class="cls-1" d="M254.9323.0817c28.8276,0,57.6558-.1084,86.4827.0368,20.2665.1022,37.7523,14.0544,42.2,33.2611,6.6071,28.535-14.1312,53.7564-44.513,53.7608-38.825.0055-77.65-.3606-116.4751-.39-18.15-.0138-36.37-.5523-54.4367.79-40.7283,3.0248-74.9525,36.663-80.7374,77.0425-6.4883,45.29,20.1881,86.8343,60.8,100.14,9.6424,3.1591,20.1419,4.1887,30.3432,5.0193,10.4311.8494,20.9866.0277,31.4762.3316,23.539.6823,43.3862,22.0022,42.5651,45.4569-.6375,18.2092-16.3283,35.7282-35.776,39.927a21.5522,21.5522,0,0,1-4.9058.871c-19.9571-.49-40.1614.7321-59.82-1.9819-53.941-7.4472-95.5162-35.4671-124.67-81.2153-62.5475-98.15-13.3577-231.0533,97.8838-265.359A169.8286,169.8286,0,0,1,175.9479,0Q215.44.0667,254.9323.0118Z"></path><path class="cls-1" d="M400.5059,406.6553c0-28.8277.1084-57.6558-.0369-86.4827-.1021-20.2665-14.0544-37.7524-33.261-42.2-28.5351-6.6072-53.7565,14.1311-53.7608,44.513-.0056,38.825.3605,77.65.39,116.475.0138,18.15.5523,36.37-.79,54.4368-3.0248,40.7282-36.663,74.9524-77.0425,80.7373-45.29,6.4884-86.8342-20.1881-100.14-60.7995-3.1591-9.6424-4.1887-20.1419-5.0194-30.3432-.8494-10.431-.0276-20.9866-.3316-31.4761-.6822-23.5391-22.0022-43.3862-45.4568-42.5651-18.2092.6375-35.7283,16.3282-39.927,35.7759a21.5476,21.5476,0,0,0-.871,4.9058c.49,19.9572-.7322,40.1615,1.9819,59.82,7.4472,53.941,35.467,95.5162,81.2153,124.67C225.6068,696.67,358.51,647.48,392.8157,536.2385a169.8249,169.8249,0,0,0,7.7716-50.5989q-.0665-39.492-.0116-78.9843Z"></path><path class="cls-1" d="M314.205,178.0619A43.2919,43.2919,0,1,1,357.601,220.88,43.3916,43.3916,0,0,1,314.205,178.0619Z"></path></g></g></svg>